<?xml version="1.0" encoding="utf-8"?>
<!-- Generator: Adobe Illustrator 14.0.0, SVG Export Plug-In . SVG Version: 6.00 Build 43363)  -->
<svg version="1.2" baseProfile="tiny" id="Layer_1" xmlns="http://www.w3.org/2000/svg" xmlns:xlink="http://www.w3.org/1999/xlink"
	 x="0px" y="0px" width="612px" height="792px" viewBox="0 0 612 792" xml:space="preserve">
<path fill="none" stroke="#231F20" d="M314.615,408.739c0.712,1.067-0.009,2.797-1.609,3.864c-1.602,1.067-3.475,1.067-4.187,0
	s0.009-2.797,1.61-3.864C312.029,407.672,313.904,407.672,314.615,408.739z M314.813,389.885c0,0,1.205,1.314,3.097,3.999
	c1.806,2.564,0.773,5.29,0.773,5.29s2.322-3.226,0.773-5.919c-1.636-2.847-4.644-6.966-4.644-6.966v23.221 M293.659,404.094
	c-1.601,1.067-2.322,2.797-1.61,3.865c0.711,1.066,2.585,1.066,4.186,0c1.601-1.068,2.322-2.798,1.61-3.865
	C297.134,403.028,295.259,403.028,293.659,404.094z M298.043,385.241c0,0,1.205,1.314,3.096,3.999
	c1.806,2.564,0.774,5.289,0.774,5.289s2.322-3.225,0.774-5.918c-1.637-2.847-4.645-6.966-4.645-6.966v23.221"/>
<rect x="288.11" y="380.339" fill="none" width="36.25" height="33.541"/>
</svg>
