<?xml version="1.0" encoding="utf-8"?>
<!-- Generator: Adobe Illustrator 14.0.0, SVG Export Plug-In . SVG Version: 6.00 Build 43363)  -->
<svg version="1.2" baseProfile="tiny" id="Layer_1" xmlns="http://www.w3.org/2000/svg" xmlns:xlink="http://www.w3.org/1999/xlink"
	 x="0px" y="0px" width="612px" height="792px" viewBox="0 0 612 792" xml:space="preserve">
<path fill="none" stroke="#231F20" d="M289.708,399.682c0.58-1.857,1.505-3.641,2.809-5.243c4.892-6.011,13.296-7.46,19.842-3.824
	c-0.604,1.265-1.346,2.484-2.271,3.62C305.056,400.418,296.771,402.379,289.708,399.682z M289.708,414.546
	c3.107,0.299,6.305-0.318,9.151-1.899c-0.604-1.265-1.347-2.484-2.271-3.62c-1.907-2.344-4.282-4.077-6.88-5.184 M312.209,403.784
	c-4.222-1.754-9.015-1.86-13.349-0.205c0.58,1.857,1.505,3.641,2.809,5.243c2.73,3.354,6.555,5.285,10.541,5.707"/>
</svg>
